# AST/ASF file generated using VICON BodyLanguage
# -----------------------------------------------
:version 1.10
:name VICON
:units
  mass 1.0
  length 0.45
  angle deg
:documentation
   .ast/.asf automatically generated from VICON data using
   VICON BodyBuilder and BodyLanguage model FoxedUp or BRILLIANT.MOD
:root
   order TX TY TZ RX RY RZ
   axis XYZ
   position 0 0 0  
   orientation 0 0 0 
:bonedata
  begin
     id 1 
     name lhipjoint
     direction 0.602128 -0.715006 0.355257 
     length 2.21237 
     axis 0 0 0  XYZ
  end
  begin
     id 2 
     name lfemur
     direction 0.34202 -0.939693 0  
     length 6.71649  
     axis 0 0 20  XYZ
    dof rx ry rz
    limits (-160.0 20.0)
           (-70.0 70.0)
           (-60.0 70.0)
  end
  begin
     id 3 
     name ltibia
     direction 0.34202 -0.939693 0   
     length 6.97123   
     axis 0 0 20   XYZ
    dof rx
    limits (-10.0 170.0)
  end
  begin
     id 4 
     name lfoot
     direction 0.0655697 -0.180151 0.981451   
     length 1.80924   
     axis -90 7.62852e-016 20   XYZ
    dof rx rz
    limits (-45.0 90.0)
           (-70.0 20.0)
  end
  begin
     id 5 
     name ltoes
     direction 1.53545e-011 -4.21827e-011 1   
     length 0.916331   
     axis -90 7.62852e-016 20   XYZ
    dof rx
    limits (-90.0 20.0)
  end
  begin
     id 6 
     name rhipjoint
     direction -0.625414 -0.698792 0.347201   
     length 2.2637  
     axis 0 0 0  XYZ 
  end
  begin
     id 7 
     name rfemur
     direction -0.34202 -0.939693 0   
     length 7.07595   
     axis 0 0 -20   XYZ
    dof rx ry rz
    limits (-160.0 20.0)
           (-70.0 70.0)
           (-70.0 60.0)
  end
  begin
     id 8 
     name rtibia
     direction -0.34202 -0.939693 0   
     length 7.22924   
     axis 0 0 -20   XYZ
    dof rx
    limits (-10.0 170.0)
 end
 begin
     id 9 
     name rfoot
     direction -0.0766747 -0.210662 0.974547   
     length 1.98482  
     axis -90 -7.62852e-016 -20   XYZ
    dof rx rz
    limits (-45.0 90.0)
           (-20.0 70.0)
  end
  begin
     id 10 
     name rtoes
     direction -1.53532e-011 -4.21867e-011 1   
     length 0.999842   
     axis -90 -7.62852e-016 -20   XYZ
    dof rx
    limits (-90.0 20.0)
  end
  begin
     id 11 
     name lowerback
     direction -0.0224668 0.997354 -0.0691422   
     length 2.09945   
     axis 0 0 0   XYZ
    dof rx ry rz
    limits (-20.0 45.0)
           (-30.0 30.0)
           (-30.0 30.0)
  end
  begin
     id 12 
     name upperback
     direction 0.0134698 0.998451 -0.0539888   
     length 2.09758   
     axis 0 0 0   XYZ
    dof rx ry rz
    limits (-20.0 45.0)
           (-30.0 30.0)
           (-30.0 30.0)
  end
  begin
     id 13 
     name thorax
     direction 0.0241905 0.99948 -0.0213333   
     length 2.10428   
     axis 0 0 0   XYZ
    dof rx ry rz
    limits (-20.0 45.0)
           (-30.0 30.0)
           (-30.0 30.0)
  end
  begin
     id 14 
     name lowerneck
     direction -0.00866847 0.995978 0.0891737   
     length 1.3959   
     axis 0 0 0   XYZ
    dof rx ry rz
    limits (-20.0 45.0)
           (-30.0 30.0)
           (-30.0 30.0)
  end
  begin
     id 15 
     name upperneck
     direction 0.0680679 0.992203 0.104404   
     length 1.39452   
     axis 0 0 0   XYZ
    dof rx ry rz
    limits (-20.0 45.0)
           (-30.0 30.0)
           (-30.0 30.0)
  end
  begin
     id 16
     name head
     direction 0.0242216 0.999358 0.0264054  
     length 1.40433  
     axis 0 0 0   XYZ
    dof rx ry rz
    limits (-20.0 45.0)
           (-30.0 30.0)
           (-30.0 30.0)
  end
  begin
     id 17 
     name lclavicle
     direction 0.929368 0.362991 -0.0671771  
     length 3.04887  
     axis 0 0 0   XYZ
    dof ry rz
    limits (-20.0 10.0)
           (0.0 20.0)
  end
  begin
     id 18 
     name lhumerus
     direction 1 -4.48967e-011 -7.13741e-028   
     length 4.77195   
     axis -180 -30 -90   XYZ
    dof rx ry rz
    limits (-60.0 90.0)
           (-90.0 90.0)
           (-90.0 90.0)
  end
  begin
     id 19
     name lradius
     direction 1 -4.48977e-011 3.60404e-027   
     length 2.98444   
     axis -180 -30 -90   XYZ
    dof rx
    limits (-10.0 170.0)
  end
  begin
     id 20
     name lwrist
     direction 1 -4.48997e-011 7.54877e-027   
     length 1.49222   
     axis -7.18178e-015 90 90   XYZ
    dof ry
    limits (-180.0 0.0)
 end
  begin
     id 21 
     name lhand
     direction 1 -4.489e-011 1.51105e-026   
     length 0.992285   
     axis -9.63605e-015 90 90   XYZ
    dof rx rz
    limits (-90.0 90.0)
           (-45.0 45.0)
  end
  begin
     id 22 
     name lfingers
     direction 1 -4.48998e-011 3.01948e-026   
     length 0.800006   
     axis -1.92718e-014 90 90   XYZ
    dof rx
    limits (0.0 90.0)
  end
  begin
     id 23
     name lthumb
     direction 0.707107 -6.34881e-011 0.707107   
     length 1.14865   
     axis -90 45 -3.53137e-014   XYZ
    dof rx rz
    limits (-45.0 45.0)
           (-45.0 45.0)
  end
  begin
     id 24 
     name rclavicle
     direction -0.945672 0.324529 0.0196374   
     length 3.4236  
     axis 0 0 0   XYZ 
    dof ry rz
    limits (-10.0 20.0)
           (-20.0 0.0)
  end
  begin
     id 25 
     name rhumerus
     direction -1 -4.4896e-011 1.02757e-029  
     length 4.62052   
     axis -180 30 90   XYZ
    dof rx ry rz
    limits (-90.0 60.0)
           (-90.0 90.0)
           (-90.0 90.0)
  end
  begin
     id 26 
     name rradius
     direction -1 -4.48982e-011 3.85962e-027   
     length 2.95332   
     axis -180 30 90   XYZ
    dof rx
    limits (-10.0 170.0)
  end
  begin
     id 27 
     name rwrist
     direction -1 -4.48961e-011 7.55118e-027   
     length 1.47666   
     axis -7.18178e-015 -90 -90   XYZ
    dof ry
    limits (-180.0 0.0)
  end
  begin
     id 28
     name rhand
     direction -1 -4.48984e-011 1.50994e-026   
     length 0.990956   
     axis -9.63605e-015 -90 -90   XYZ
    dof rx rz
    limits (-90.0 90.0)
           (-45.0 45.0)
  end
  begin
     id 29
     name rfingers
     direction -1 -4.4892e-011 3.02158e-026   
     length 0.798934   
     axis -1.92718e-014 -90 -90   XYZ
    dof rx
    limits (0.0 90.0)
  end
  begin
     id 30
     name rthumb
     direction -0.707107 -6.34916e-011 0.707107   
     length 1.14711   
     axis -90 -45 3.53137e-014   XYZ
    dof rx rz
    limits (-45.0 45.0)
           (-45.0 45.0)
  end
:hierarchy
  begin
    root lhipjoint rhipjoint lowerback
    lhipjoint lfemur
    lfemur ltibia
    ltibia lfoot
    lfoot ltoes
    rhipjoint rfemur
    rfemur rtibia
    rtibia rfoot
    rfoot rtoes
    lowerback upperback
    upperback thorax
    thorax lowerneck lclavicle rclavicle
    lowerneck upperneck
    upperneck head
    lclavicle lhumerus
    lhumerus lradius
    lradius lwrist
    lwrist lhand lthumb
    lhand lfingers
    rclavicle rhumerus
    rhumerus rradius
    rradius rwrist
    rwrist rhand rthumb
    rhand rfingers
  end

#!OML:ASF H:\ManfredObstacles\Project 1\Capture day 1\Session 1\Male.ASF
:FULLY-SPECIFIED
:DEGREES
151
root 12.0246 16.116 27.8019 -171.074 -1.23334 -178.066
lowerback -8.61145 -1.33375 -1.67306
upperback 2.15263 -1.66854 1.02566
thorax 7.18267 -0.91648 1.77383
lowerneck -2.37296 -0.877649 -5.3222
upperneck -0.282612 -0.971307 8.20541
head 0.404025 -0.394067 3.58686
rclavicle 4.00054e-015 2.98177e-015
rhumerus -34.2105 -29.0867 -72.6992
rradius 20.1907
rwrist 40.9205
rhand -1.37002 -6.53544
rfingers 7.12502
rthumb 24.2775 -35.0183
lclavicle 4.00054e-015 2.98177e-015
lhumerus -25.4836 11.7118 85.9813
lradius 24.5671
lwrist -26.7643
lhand -9.20394 6.6137
lfingers 7.12502
lthumb 16.7501 35.9111
rfemur -14.1494 -5.96665 26.1107
rtibia 26.3308
rfoot -22.537 19.3843
rtoes 32.0405
lfemur -33.7701 -2.23157 -14.8805
ltibia 58.6948
lfoot -9.21857 9.13598
ltoes -7.03677
152
root 12.0408 16.0939 27.6691 -171.052 -0.98058 -178.151
lowerback -8.59347 -1.14464 -1.68403
upperback 2.18099 -1.40676 0.921813
thorax 7.18769 -0.786124 1.70982
lowerneck -2.41372 -0.823205 -5.44728
upperneck 0.00507561 -0.914733 8.19781
head 0.499863 -0.365142 3.60996
rclavicle 2.23633e-016 5.1684e-015
rhumerus -33.6452 -28.931 -73.2324
rradius 20.1342
rwrist 40.9051
rhand -1.36921 -6.76885
rfingers 7.12502
rthumb 24.2783 -35.2516
lclavicle 2.23633e-016 5.1684e-015
lhumerus -26.0095 11.7262 85.8225
lradius 25.4177
lwrist -25.773
lhand -9.28543 6.8391
lfingers 7.12502
lthumb 16.6717 36.1431
rfemur -13.657 -5.43605 26.0226
rtibia 26.4056
rfoot -23.0751 19.107
rtoes 31.8915
lfemur -34.703 -2.43319 -14.8772
ltibia 56.032
lfoot -10.1293 9.39788
ltoes -7.28602
153
root 12.0533 16.0662 27.5285 -171.121 -0.783726 -178.577
lowerback -8.49761 -1.0614 -2.06501
upperback 2.23745 -1.24103 0.750253
thorax 7.19043 -0.717447 1.76945
lowerneck -2.52682 -0.730186 -5.59722
upperneck 0.311999 -0.803692 8.16671
head 0.610657 -0.30817 3.63097
rclavicle 1.0312e-014 8.54774e-015
rhumerus -33.1044 -28.2628 -73.9723
rradius 20.2671
rwrist 40.4736
rhand -1.15821 -6.76832
rfingers 7.12502
rthumb 24.4806 -35.2238
lclavicle 1.0312e-014 8.54774e-015
lhumerus -26.5445 11.9396 85.5514
lradius 26.1266
lwrist -24.9555
lhand -9.41036 7.02585
lfingers 7.12502
lthumb 16.5514 36.34
rfemur -12.9078 -5.18892 25.6185
rtibia 26.2336
rfoot -23.5806 18.7868
rtoes 31.2826
lfemur -35.3171 -2.67432 -15.2183
ltibia 52.9668
lfoot -10.626 9.50588
ltoes -6.67595
154
root 12.0607 16.0277 27.381 -171.166 -0.709981 -179.007
lowerback -8.47102 -0.973687 -2.39375
upperback 2.26768 -1.07174 0.529842
thorax 7.20166 -0.643788 1.74771
lowerneck -2.38832 -0.646557 -5.49892
upperneck 0.371537 -0.704783 8.03825
head 0.595762 -0.263331 3.56817
rclavicle 9.69075e-015 -2.5842e-015
rhumerus -32.6715 -27.4928 -74.8029
rradius 20.4814
rwrist 39.7512
rhand -0.898604 -6.67266
rfingers 7.12502
rthumb 24.7294 -35.0943
lclavicle 9.69075e-015 -2.5842e-015
lhumerus -27.0164 12.2155 85.1426
lradius 26.4867
lwrist -24.5048
lhand -9.67681 6.91753
lfingers 7.12502
lthumb 16.2949 36.2529
rfemur -12.0635 -5.3598 25.2768
rtibia 25.8204
rfoot -24.0679 18.3627
rtoes 29.8579
lfemur -35.8202 -2.91274 -15.5524
ltibia 49.5575
lfoot -10.8024 9.48298
ltoes -6.39189
155
root 12.0679 16.0033 27.2282 -171.098 -0.721817 -178.978
lowerback -8.52588 -0.810398 -2.17759
upperback 2.24257 -0.866135 0.381438
thorax 7.18932 -0.529474 1.49967
lowerneck -2.13329 -0.619397 -5.28784
upperneck 0.268696 -0.67908 7.83791
head 0.512725 -0.258511 3.45682
rclavicle 7.45443e-015 -6.75868e-015
rhumerus -32.2651 -26.7692 -75.7023
rradius 20.7435
rwrist 38.9365
rhand -0.654442 -6.79786
rfingers 7.12502
rthumb 24.9634 -35.1872
lclavicle 7.45443e-015 -6.75868e-015
lhumerus -27.4481 12.4813 84.6452
lradius 26.5957
lwrist -24.3182
lhand -9.87239 7.07418
lfingers 7.12502
lthumb 16.1065 36.4249
rfemur -11.2564 -5.38738 25.3897
rtibia 25.2695
rfoot -24.4234 17.8961
rtoes 28.8102
lfemur -36.2542 -3.09441 -15.3585
ltibia 45.7597
lfoot -10.6185 9.28574
ltoes -6.90424
156
root 12.0736 15.9951 27.0713 -170.995 -0.772384 -178.871
lowerback -8.59069 -0.721806 -1.96563
upperback 2.22732 -0.769569 0.37509
thorax 7.20242 -0.472589 1.38741
lowerneck -2.20077 -0.557004 -5.35245
upperneck 0.351132 -0.601812 7.6275
head 0.544187 -0.223334 3.39747
rclavicle 8.94531e-016 1.13307e-014
rhumerus -31.686 -25.5298 -76.6664
rradius 21.0492
rwrist 37.872
rhand -0.493197 -7.2282
rfingers 7.12502
rthumb 25.1179 -35.596
lclavicle 8.94531e-016 1.13307e-014
lhumerus -27.8093 13.1223 84.2043
lradius 26.477
lwrist -24.4541
lhand -10.0497 7.27273
lfingers 7.12502
lthumb 15.9357 36.6371
rfemur -10.4443 -5.34693 25.5031
rtibia 24.7213
rfoot -24.6526 17.776
rtoes 28.8663
lfemur -36.4936 -3.30837 -15.0794
ltibia 41.5455
lfoot -10.0987 8.8964
ltoes -7.59532
157
root 12.0767 16.0045 26.9078 -170.889 -0.684017 -178.939
lowerback -8.70825 -0.642917 -1.97519
upperback 2.23398 -0.659543 0.362803
thorax 7.27269 -0.419474 1.39529
lowerneck -2.37796 -0.481372 -5.57121
upperneck 0.547463 -0.504659 7.47094
head 0.631401 -0.176282 3.38783
rclavicle -2.78299e-015 7.95139e-016
rhumerus -31.1259 -24.363 -77.4782
rradius 21.2921
rwrist 37.2051
rhand -0.531163 -7.47447
rfingers 7.12502
rthumb 25.0815 -35.8473
lclavicle -2.78299e-015 7.95139e-016
lhumerus -28.052 14.2794 83.6399
lradius 25.9754
lwrist -25.1545
lhand -10.1391 7.13622
lfingers 7.12502
lthumb 15.8497 36.5075
rfemur -9.59993 -5.03962 25.3248
rtibia 24.175
rfoot -24.6651 17.8666
rtoes 29.4758
lfemur -36.4558 -3.35973 -15.0499
ltibia 36.9899
lfoot -9.09267 8.28862
ltoes -7.74793
158
root 12.0815 16.0296 26.7375 -170.742 -0.547036 -179.035
lowerback -8.85982 -0.46645 -1.93641
upperback 2.18286 -0.413828 0.200498
thorax 7.29352 -0.293251 1.2388
lowerneck -2.46053 -0.475528 -5.46951
upperneck 0.742 -0.507677 7.28836
head 0.706407 -0.178453 3.30597
rclavicle -2.98177e-016 0
rhumerus -30.9152 -23.7413 -78.1521
rradius 21.5682
rwrist 37.0511
rhand -0.673195 -7.13582
rfingers 7.12502
rthumb 24.9454 -35.5276
lclavicle -2.98177e-016 0
lhumerus -28.3447 15.3608 82.7797
lradius 25.3137
lwrist -25.9142
lhand -9.93239 7.1045
lfingers 7.12502
lthumb 16.0488 36.4598
rfemur -8.75201 -4.43894 25.0706
rtibia 23.5302
rfoot -24.466 17.962
rtoes 30.3196
lfemur -36.2368 -3.31767 -15.0498
ltibia 32.3264
lfoot -7.73578 7.24333
ltoes -6.41001
159
root 12.0844 16.041 26.5631 -170.57 -0.504012 -178.947
lowerback -9.01458 -0.314495 -1.74489
upperback 2.08922 -0.222484 0.0864376
thorax 7.27361 -0.187505 1.03956
lowerneck -2.65179 -0.463766 -5.18414
upperneck 1.00718 -0.505012 7.00809
head 0.820716 -0.175561 3.15651
rclavicle -2.73329e-015 3.18055e-015
rhumerus -30.8047 -23.1403 -78.7946
rradius 21.8343
rwrist 36.9873
rhand -0.846368 -6.66526
rfingers 7.12502
rthumb 24.7795 -35.08
lclavicle -2.73329e-015 3.18055e-015
lhumerus -28.8 16.3747 81.8268
lradius 24.6268
lwrist -26.6048
lhand -9.804 7.41738
lfingers 7.12502
lthumb 16.1724 36.7627
rfemur -7.87276 -4.20831 25.0785
rtibia 22.761
rfoot -24.3408 18.0877
rtoes 30.5087
lfemur -36.0445 -3.11019 -14.9464
ltibia 27.8331
lfoot -5.69279 5.73563
ltoes -4.56714
160
root 12.0836 16.0395 26.3842 -170.413 -0.410983 -178.584
lowerback -9.21147 -0.21623 -1.40101
upperback 2.02081 -0.133567 0.164899
thorax 7.30964 -0.130379 0.941955
lowerneck -2.79906 -0.395755 -5.04388
upperneck 1.17116 -0.4214 6.69483
head 0.890118 -0.136157 3.02518
rclavicle -4.47266e-016 -5.96354e-016
rhumerus -30.5367 -22.1084 -79.4666
rradius 22.07
rwrist 36.4361
rhand -0.940641 -6.57431
rfingers 7.12502
rthumb 24.6891 -35.0014
lclavicle -4.47266e-016 -5.96354e-016
lhumerus -29.287 17.9037 80.8218
lradius 23.6806
lwrist -27.745
lhand -9.68609 7.50372
lfingers 7.12502
lthumb 16.2859 36.8398
rfemur -6.90561 -4.25504 25.4121
rtibia 21.8972
rfoot -24.3966 18.1908
rtoes 30.003
lfemur -35.9171 -2.35914 -14.8251
ltibia 23.7237
lfoot -2.86209 3.64512
ltoes -4.20757
